:SAMPLES-PER-SECOND 30
:FULLY-SPECIFIED
:DEGREES
211
root  5.009022285 38.23711065 -0.8899688721 -109.7579956 -84.72840118 100.7459717
lowerback  13.12880039 2.391200066 -2.970779896
upperback  4.921700001 2.625390053 1.305330038
thorax  -2.377739906 1.187510014 2.645450115
lowerneck  -4.67580986 7.960790157 0.459506005
upperneck  13.47259998 10.50249958 0.7233510017
head  4.798319817 5.168059826 0.7191830277
lclavicle  0 -9.442270133e-015 7.951389973e-016
lhumerus  0.283149004 -16.20210075 83.50869751
lradius  2.237071846e-031 -2.732096923e-031 129.3110046
lwrist  0 -8.827812596e-032 17.64620018
lhand  -1.496451383e-031 -27.76390076 20.11240005
lfingers  90 7.125020027 -90
lthumb  89.89689403 5.08795885 91.16245106
rclavicle  0 -9.442270133e-015 7.951389973e-016
rhumerus  14.32260036 29.41360092 -79.48840332
rradius  -1.649921834e-031 3.121954833e-031 117.8560028
rwrist  7.062250077e-031 -1.765562519e-031 -23.32150078
rhand  -7.920061211e-032 -33.2840004 9.303460121
rfingers  -90 -7.125020027 -90
rthumb  -92.93752616 -24.25625642 -97.11982154
rfemur  -10.47200012 13.93970013 -3.718719959
rtibia  -0 0 58.20539856
rfoot  -4.524296899e-032 -12.68280029 1.74379003
rtoes  5.373923086 19.29304026 -105.8922705
lfemur  -25.1406002 1.899189949 -5.332670212
ltibia  -0 0 64.52010345
lfoot  4.414972718e-032 -1.259349942 -5.479569912
ltoes  -4.250644065 -19.5611806 -102.515957
212
root  4.923844525 38.12111081 -0.8632510666 -105.4429932 -84.87390137 95.96398926
lowerback  12.98869991 2.369110107 -3.011320114
upperback  4.788809776 2.610019922 1.455049992
thorax  -2.448549986 1.186010003 2.828910112
lowerneck  -5.020020008 7.799170017 0.2470259964
upperneck  14.18630028 10.24250031 1.167129993
head  5.040949821 5.046350002 0.9052969813
lclavicle  0 -9.442270133e-015 7.951389973e-016
lhumerus  0.7747179866 -16.44729996 83.58180237
lradius  2.219717425e-031 -2.746215321e-031 128.947998
lwrist  -7.062250077e-031 -1.765562519e-031 18.22730064
lhand  -1.496451383e-031 -27.76390076 20.11240005
lfingers  90 7.125020027 -90
lthumb  89.89689403 5.08795885 91.16245106
rclavicle  0 -9.442270133e-015 7.951389973e-016
rhumerus  14.92430019 29.23550034 -79.01390076
rradius  -1.619713296e-031 3.137733716e-031 117.3030014
rwrist  1.412450015e-030 1.324171889e-031 -24.18589973
rhand  -7.920061211e-032 -33.2840004 9.303460121
rfingers  -90 -7.125020027 -90
rthumb  -92.93752616 -24.25625642 -97.11982154
rfemur  -9.40116024 14.66170025 -3.439389944
rtibia  -0 0 57.4090004
rfoot  -4.555229444e-032 -14.30930042 1.050999999
rtoes  5.373923086 19.29304026 -105.8922705
lfemur  -24.73489952 1.040380001 -5.075240135
ltibia  -0 0 64.26029968
lfoot  8.830632125e-032 -1.447909951 -5.238160133
ltoes  -4.250644065 -19.5611806 -102.515957
213
root  4.842288851 37.98822118 -0.8293288899 -102.8800049 -85.10500336 92.97302246
lowerback  12.77569962 2.407680035 -2.841130018
upperback  4.691629887 2.700069904 1.569970012
thorax  -2.439699888 1.236179948 2.843739986
lowerneck  -5.344180107 7.584070206 0.2402320057
upperneck  14.75279999 9.900389671 1.50917995
head  5.253990173 4.892499924 1.019899964
lclavicle  0 -9.442270133e-015 7.951389973e-016
lhumerus  1.300909996 -16.81879997 83.65100098
lradius  2.203382245e-031 -2.759338819e-031 128.6080017
lwrist  -7.062250077e-031 -8.827812596e-032 18.79719925
lhand  -1.496451383e-031 -27.76390076 20.11240005
lfingers  90 7.125020027 -90
lthumb  89.89689403 5.08795885 91.16245106
rclavicle  0 -9.442270133e-015 7.951389973e-016
rhumerus  15.60410023 28.87969971 -78.72450256
rradius  -1.586106127e-031 3.154855209e-031 116.6910019
rwrist  7.062250077e-031 8.827812596e-032 -25.32010078
rhand  -7.920061211e-032 -33.2840004 9.303460121
rfingers  -90 -7.125020027 -90
rthumb  -92.93752616 -24.25625642 -97.11982154
rfemur  -8.463629723 15.40620041 -3.017640114
rtibia  -0 0 56.7969017
rfoot  -4.872610281e-032 -15.74540043 -0.1521870047
rtoes  5.373923086 19.29304026 -105.8922705
lfemur  -24.23950005 -0.01465439983 -4.695879936
ltibia  -0 0 63.86840057
lfoot  4.415365734e-032 -1.47318995 -4.991660118
ltoes  -4.250644065 -19.5611806 -102.515957
214
root  4.77195537 37.83933384 -0.7900444541 -102.2990112 -85.41269684 91.92199707
lowerback  12.59500027 2.409790039 -2.411299944
upperback  4.675889969 2.762840033 1.592880011
thorax  -2.344990015 1.270149946 2.62112999
lowerneck  -5.817100048 7.428999901 0.3143860102
upperneck  15.27760029 9.624779701 1.872059941
head  5.484020233 4.780029774 1.137310028
lclavicle  0 -9.442270133e-015 7.951389973e-016
lhumerus  1.926100016 -17.03339958 83.49069977
lradius  2.182708238e-031 -2.775721309e-031 128.1799927
lwrist  -7.062250077e-031 -8.827812596e-032 19.16460037
lhand  -1.496451383e-031 -27.76390076 20.11240005
lfingers  90 7.125020027 -90
lthumb  89.89689403 5.08795885 91.16245106
rclavicle  0 -9.442270133e-015 7.951389973e-016
rhumerus  16.43429947 28.56010056 -78.69670105
rradius  -1.555970088e-031 3.169826671e-031 116.1449966
rwrist  7.062250077e-031 2.427648464e-031 -26.9428997
rhand  -7.920061211e-032 -33.2840004 9.303460121
rfingers  -90 -7.125020027 -90
rthumb  -92.93752616 -24.25625642 -97.11982154
rfemur  -7.551849842 16.35420036 -2.420160055
rtibia  -0 0 56.45270157
rfoot  -6.919054571e-032 -16.88249969 -1.799000025
rtoes  5.373923086 19.29304026 -105.8922705
lfemur  -23.5984993 -1.187960029 -4.26060009
ltibia  -0 0 63.28979874
lfoot  4.414471761e-032 -0.9170749784 -4.591189861
ltoes  -4.250644065 -19.5611806 -102.515957
215
root  4.703511216 37.66755532 -0.7474933553 -103.1589966 -85.87329865 92.28302002
lowerback  12.50249958 2.373939991 -1.870900035
upperback  4.664279938 2.785140038 1.689919949
thorax  -2.288860083 1.283810019 2.417299986
lowerneck  -6.464459896 7.313189983 0.2409839928
upperneck  15.97379971 9.390390396 2.375149965
head  5.784589767 4.690110207 1.334969997
lclavicle  0 -9.442270133e-015 7.951389973e-016
lhumerus  2.442339897 -17.20490074 83.43209839
lradius  2.160694674e-031 -2.792891434e-031 127.7269974
lwrist  -7.062250077e-031 -0 19.36059952
lhand  -1.496451383e-031 -27.76390076 20.11240005
lfingers  90 7.125020027 -90
lthumb  89.89689403 5.08795885 91.16245106
rclavicle  0 -9.442270133e-015 7.951389973e-016
rhumerus  17.23119926 28.45009995 -78.71510315
rradius  -1.527971589e-031 3.183417481e-031 115.6399994
rwrist  7.062250077e-031 3.420777381e-031 -28.74839973
rhand  -7.920061211e-032 -33.2840004 9.303460121
rfingers  -90 -7.125020027 -90
rthumb  -92.93752616 -24.25625642 -97.11982154
rfemur  -6.669690132 17.26110077 -1.606559992
rtibia  -0 0 56.43730164
rfoot  -6.946554814e-032 -17.61450005 -2.779730082
rtoes  5.373923086 19.29304026 -105.8922705
lfemur  -22.85219955 -2.359410048 -3.656759977
ltibia  -0 0 62.52320099
lfoot  4.414144604e-032 -0.5953660011 -4.281680107
ltoes  -4.250644065 -19.5611806 -102.515957
216
root  4.627844292 37.47088815 -0.6967755753 -105.8430176 -86.23339844 94.52099609
lowerback  12.35949993 2.436969995 -1.462200046
upperback  4.6364398 2.924160004 1.795230031
thorax  -2.234179974 1.355800033 2.280790091
lowerneck  -7.123429775 7.121900082 0.2492060065
upperneck  16.68589973 9.054450035 2.760639906
head  6.107069969 4.549739838 1.478430033
lclavicle  0 -9.442270133e-015 7.951389973e-016
lhumerus  2.892910004 -17.53300095 83.48120117
lradius  2.143300041e-031 -2.806262456e-031 127.3710022
lwrist  0 -8.827812596e-032 19.88990021
lhand  -1.496451383e-031 -27.76390076 20.11240005
lfingers  90 7.125020027 -90
lthumb  89.89689403 5.08795885 91.16245106
rclavicle  0 -9.442270133e-015 7.951389973e-016
rhumerus  17.94680023 28.36969948 -78.71170044
rradius  -1.499630909e-031 3.196865836e-031 115.1309967
rwrist  7.062250077e-031 3.089734409e-031 -30.69309998
rhand  -7.920061211e-032 -33.2840004 9.303460121
rfingers  -90 -7.125020027 -90
rthumb  -92.93752616 -24.25625642 -97.11982154
rfemur  -5.965340137 17.92779922 -0.9797779918
rtibia  -0 0 56.68510056
rfoot  -4.651121676e-032 -18.37779999 -2.869800091
rtoes  5.373923086 19.29304026 -105.8922705
lfemur  -21.93630028 -3.60413003 -3.131109953
ltibia  -0 0 61.63899994
lfoot  4.41652737e-032 -1.974050045 -4.19630003
ltoes  -4.250644065 -19.5611806 -102.515957
217
root  4.56360006 37.255556 -0.6436999858 -109.8800049 -86.37870026 98.16900635
lowerback  12.19859982 2.578249931 -1.174170017
upperback  4.622859955 3.148629904 1.788800001
thorax  -2.157289982 1.470350027 2.085390091
lowerneck  -7.724899769 6.851520061 0.3398349881
upperneck  17.2493 8.60544014 3.082070112
head  6.384940147 4.35902977 1.573500037
lclavicle  0 -9.442270133e-015 7.951389973e-016
lhumerus  3.397870064 -17.86750031 83.42310333
lradius  2.1281343e-031 -2.817780765e-031 127.0619965
lwrist  -7.062250077e-031 -0 20.52219963
lhand  -1.496451383e-031 -27.76390076 20.11240005
lfingers  90 7.125020027 -90
lthumb  89.89689403 5.08795885 91.16245106
rclavicle  0 -9.442270133e-015 7.951389973e-016
rhumerus  18.66460037 28.17370033 -78.78130341
rradius  -1.469547396e-031 3.210805894e-031 114.5930023
rwrist  7.062250077e-031 2.869039094e-031 -32.98049927
rhand  -7.920061211e-032 -33.2840004 9.303460121
rfingers  -90 -7.125020027 -90
rthumb  -92.93752616 -24.25625642 -97.11982154
rfemur  -5.513679981 18.3064003 -0.6848220229
rtibia  -0 0 57.06560135
rfoot  -4.676245777e-032 -19.28289986 -3.124919891
rtoes  5.373923086 19.29304026 -105.8922705
lfemur  -20.91769981 -4.852240086 -2.815720081
ltibia  -0 0 60.82260132
lfoot  4.427313581e-032 -4.460130215 -4.564899921
ltoes  -4.250644065 -19.5611806 -102.515957
218
root  4.50399992 37.05310972 -0.5792066807 -116.1870117 -86.57189941 104.1040039
lowerback  12.08040047 2.682310104 -0.6698399782
upperback  4.606389999 3.346430063 1.799479961
thorax  -2.091890097 1.572659969 1.789759994
lowerneck  -8.28938961 6.546279907 0.2926650047
upperneck  17.77260017 8.129770279 3.370419979
head  6.642270088 4.146810055 1.673259974
lclavicle  0 -9.442270133e-015 7.951389973e-016
lhumerus  3.791330099 -18.03680038 83.37770081
lradius  2.114733751e-031 -2.827851693e-031 126.7900009
lwrist  -7.062250077e-031 8.827812596e-032 21.04649925
lhand  -1.496451383e-031 -27.76390076 20.11240005
lfingers  90 7.125020027 -90
lthumb  89.89689403 5.08795885 91.16245106
rclavicle  0 -9.442270133e-015 7.951389973e-016
rhumerus  19.38500023 27.9083004 -78.99700165
rradius  -1.440628301e-031 3.223884945e-031 114.0780029
rwrist  0 8.827812596e-032 -35.32970047
rhand  -7.920061211e-032 -33.2840004 9.303460121
rfingers  -90 -7.125020027 -90
rthumb  -92.93752616 -24.25625642 -97.11982154
rfemur  -5.150619984 18.43050003 -0.3554750085
rtibia  -0 0 57.39390182
rfoot  -4.70601685e-032 -20.2935009 -3.671839952
rtoes  5.373923086 19.29304026 -105.8922705
lfemur  -19.87310028 -6.091849804 -2.449860096
ltibia  -0 0 60.2635994
lfoot  4.445424841e-032 -6.826859951 -4.727920055
ltoes  -4.250644065 -19.5611806 -102.515957
